<svg id="visual" viewBox="0 0 1920 1080" width="1920" height="1080" xmlns="http://www.w3.org/2000/svg" xmlns:xlink="http://www.w3.org/1999/xlink" version="1.1"><rect x="0" y="0" width="1920" height="1080" fill="#001220"></rect><path d="M0 475L45.7 464.3C91.3 453.7 182.7 432.3 274.2 435.3C365.7 438.3 457.3 465.7 548.8 500.2C640.3 534.7 731.7 576.3 823 561C914.3 545.7 1005.7 473.3 1097 460.5C1188.3 447.7 1279.7 494.3 1371.2 509.5C1462.7 524.7 1554.3 508.3 1645.8 487.2C1737.3 466 1828.7 440 1874.3 427L1920 414L1920 0L1874.3 0C1828.7 0 1737.3 0 1645.8 0C1554.3 0 1462.7 0 1371.2 0C1279.7 0 1188.3 0 1097 0C1005.7 0 914.3 0 823 0C731.7 0 640.3 0 548.8 0C457.3 0 365.7 0 274.2 0C182.7 0 91.3 0 45.7 0L0 0Z" fill="#710ab6"></path><path d="M0 318L45.7 323.2C91.3 328.3 182.7 338.7 274.2 353.5C365.7 368.3 457.3 387.7 548.8 385.7C640.3 383.7 731.7 360.3 823 364.7C914.3 369 1005.7 401 1097 409.5C1188.3 418 1279.7 403 1371.2 409.3C1462.7 415.7 1554.3 443.3 1645.8 435.5C1737.3 427.7 1828.7 384.3 1874.3 362.7L1920 341L1920 0L1874.3 0C1828.7 0 1737.3 0 1645.8 0C1554.3 0 1462.7 0 1371.2 0C1279.7 0 1188.3 0 1097 0C1005.7 0 914.3 0 823 0C731.7 0 640.3 0 548.8 0C457.3 0 365.7 0 274.2 0C182.7 0 91.3 0 45.7 0L0 0Z" fill="#692cc6"></path><path d="M0 379L45.7 356.3C91.3 333.7 182.7 288.3 274.2 267.8C365.7 247.3 457.3 251.7 548.8 271C640.3 290.3 731.7 324.7 823 349.3C914.3 374 1005.7 389 1097 391C1188.3 393 1279.7 382 1371.2 353.3C1462.7 324.7 1554.3 278.3 1645.8 265.2C1737.3 252 1828.7 272 1874.3 282L1920 292L1920 0L1874.3 0C1828.7 0 1737.3 0 1645.8 0C1554.3 0 1462.7 0 1371.2 0C1279.7 0 1188.3 0 1097 0C1005.7 0 914.3 0 823 0C731.7 0 640.3 0 548.8 0C457.3 0 365.7 0 274.2 0C182.7 0 91.3 0 45.7 0L0 0Z" fill="#5f41d4"></path><path d="M0 193L45.7 200.5C91.3 208 182.7 223 274.2 216.3C365.7 209.7 457.3 181.3 548.8 165.8C640.3 150.3 731.7 147.7 823 154.8C914.3 162 1005.7 179 1097 197.7C1188.3 216.3 1279.7 236.7 1371.2 243.2C1462.7 249.7 1554.3 242.3 1645.8 241C1737.3 239.7 1828.7 244.3 1874.3 246.7L1920 249L1920 0L1874.3 0C1828.7 0 1737.3 0 1645.8 0C1554.3 0 1462.7 0 1371.2 0C1279.7 0 1188.3 0 1097 0C1005.7 0 914.3 0 823 0C731.7 0 640.3 0 548.8 0C457.3 0 365.7 0 274.2 0C182.7 0 91.3 0 45.7 0L0 0Z" fill="#5352e1"></path><path d="M0 73L45.7 91.8C91.3 110.7 182.7 148.3 274.2 153.7C365.7 159 457.3 132 548.8 117.5C640.3 103 731.7 101 823 112.8C914.3 124.7 1005.7 150.3 1097 144.7C1188.3 139 1279.7 102 1371.2 99.7C1462.7 97.3 1554.3 129.7 1645.8 146.8C1737.3 164 1828.7 166 1874.3 167L1920 168L1920 0L1874.3 0C1828.7 0 1737.3 0 1645.8 0C1554.3 0 1462.7 0 1371.2 0C1279.7 0 1188.3 0 1097 0C1005.7 0 914.3 0 823 0C731.7 0 640.3 0 548.8 0C457.3 0 365.7 0 274.2 0C182.7 0 91.3 0 45.7 0L0 0Z" fill="#4361ed"></path></svg>