<svg id="visual" viewBox="0 0 1920 1080" width="1920" height="1080" xmlns="http://www.w3.org/2000/svg" xmlns:xlink="http://www.w3.org/1999/xlink" version="1.1"><rect x="0" y="0" width="1920" height="1080" fill="#001220"></rect><path d="M0 603L45.7 613.7C91.3 624.3 182.7 645.7 274.2 642.7C365.7 639.7 457.3 612.3 548.8 577.8C640.3 543.3 731.7 501.7 823 517C914.3 532.3 1005.7 604.7 1097 617.5C1188.3 630.3 1279.7 583.7 1371.2 568.5C1462.7 553.3 1554.3 569.7 1645.8 590.8C1737.3 612 1828.7 638 1874.3 651L1920 664L1920 1081L1874.3 1081C1828.7 1081 1737.3 1081 1645.8 1081C1554.3 1081 1462.7 1081 1371.2 1081C1279.7 1081 1188.3 1081 1097 1081C1005.7 1081 914.3 1081 823 1081C731.7 1081 640.3 1081 548.8 1081C457.3 1081 365.7 1081 274.2 1081C182.7 1081 91.3 1081 45.7 1081L0 1081Z" fill="#710ab6"></path><path d="M0 760L45.7 754.8C91.3 749.7 182.7 739.3 274.2 724.5C365.7 709.7 457.3 690.3 548.8 692.3C640.3 694.3 731.7 717.7 823 713.3C914.3 709 1005.7 677 1097 668.5C1188.3 660 1279.7 675 1371.2 668.7C1462.7 662.3 1554.3 634.7 1645.8 642.5C1737.3 650.3 1828.7 693.7 1874.3 715.3L1920 737L1920 1081L1874.3 1081C1828.7 1081 1737.3 1081 1645.8 1081C1554.3 1081 1462.7 1081 1371.2 1081C1279.7 1081 1188.3 1081 1097 1081C1005.7 1081 914.3 1081 823 1081C731.7 1081 640.3 1081 548.8 1081C457.3 1081 365.7 1081 274.2 1081C182.7 1081 91.3 1081 45.7 1081L0 1081Z" fill="#692cc6"></path><path d="M0 699L45.7 721.7C91.3 744.3 182.7 789.7 274.2 810.2C365.7 830.7 457.3 826.3 548.8 807C640.3 787.7 731.7 753.3 823 728.7C914.3 704 1005.7 689 1097 687C1188.3 685 1279.7 696 1371.2 724.7C1462.7 753.3 1554.3 799.7 1645.8 812.8C1737.3 826 1828.7 806 1874.3 796L1920 786L1920 1081L1874.3 1081C1828.7 1081 1737.3 1081 1645.8 1081C1554.3 1081 1462.7 1081 1371.2 1081C1279.7 1081 1188.3 1081 1097 1081C1005.7 1081 914.3 1081 823 1081C731.7 1081 640.3 1081 548.8 1081C457.3 1081 365.7 1081 274.2 1081C182.7 1081 91.3 1081 45.7 1081L0 1081Z" fill="#5f41d4"></path><path d="M0 885L45.7 877.5C91.3 870 182.7 855 274.2 861.7C365.7 868.3 457.3 896.7 548.8 912.2C640.3 927.7 731.7 930.3 823 923.2C914.3 916 1005.7 899 1097 880.3C1188.3 861.7 1279.7 841.3 1371.2 834.8C1462.7 828.3 1554.3 835.7 1645.8 837C1737.3 838.3 1828.7 833.7 1874.3 831.3L1920 829L1920 1081L1874.3 1081C1828.7 1081 1737.3 1081 1645.8 1081C1554.3 1081 1462.7 1081 1371.2 1081C1279.7 1081 1188.3 1081 1097 1081C1005.7 1081 914.3 1081 823 1081C731.7 1081 640.3 1081 548.8 1081C457.3 1081 365.7 1081 274.2 1081C182.7 1081 91.3 1081 45.7 1081L0 1081Z" fill="#5352e1"></path><path d="M0 1005L45.7 986.2C91.3 967.3 182.7 929.7 274.2 924.3C365.7 919 457.3 946 548.8 960.5C640.3 975 731.7 977 823 965.2C914.3 953.3 1005.7 927.7 1097 933.3C1188.3 939 1279.7 976 1371.2 978.3C1462.7 980.7 1554.3 948.3 1645.8 931.2C1737.3 914 1828.7 912 1874.3 911L1920 910L1920 1081L1874.3 1081C1828.7 1081 1737.3 1081 1645.8 1081C1554.3 1081 1462.7 1081 1371.2 1081C1279.7 1081 1188.3 1081 1097 1081C1005.7 1081 914.3 1081 823 1081C731.7 1081 640.3 1081 548.8 1081C457.3 1081 365.7 1081 274.2 1081C182.7 1081 91.3 1081 45.7 1081L0 1081Z" fill="#4361ed"></path></svg>