<svg id="visual" viewBox="0 0 1920 1080" width="1920" height="1080" xmlns="http://www.w3.org/2000/svg" xmlns:xlink="http://www.w3.org/1999/xlink" version="1.1"><rect x="0" y="0" width="1920" height="1080" fill="#001220"></rect><path d="M0 489L64 458.7C128 428.3 256 367.7 384 347.8C512 328 640 349 768 370C896 391 1024 412 1152 445.2C1280 478.3 1408 523.7 1536 523.2C1664 522.7 1792 476.3 1856 453.2L1920 430L1920 1081L1856 1081C1792 1081 1664 1081 1536 1081C1408 1081 1280 1081 1152 1081C1024 1081 896 1081 768 1081C640 1081 512 1081 384 1081C256 1081 128 1081 64 1081L0 1081Z" fill="#4361ed" stroke-linecap="round" stroke-linejoin="miter"></path></svg>